<svg width="16" height="14" viewBox="0 0 16 14" fill="none" xmlns="http://www.w3.org/2000/svg">
<path d="M16 2.03894C15.405 2.29994 14.771 2.47294 14.11 2.55694C14.79 2.15094 15.309 1.51294 15.553 0.743939C14.919 1.12194 14.219 1.38894 13.473 1.53794C12.871 0.896939 12.013 0.499939 11.077 0.499939C9.26097 0.499939 7.79897 1.97394 7.79897 3.78094C7.79897 4.04094 7.82097 4.29094 7.87497 4.52894C5.14797 4.39594 2.73497 3.08894 1.11397 1.09794C0.830969 1.58894 0.66497 2.15094 0.66497 2.75594C0.66497 3.89194 1.24997 4.89894 2.12197 5.48194C1.59497 5.47194 1.07797 5.31894 0.639969 5.07794C0.639969 5.08794 0.639969 5.10094 0.639969 5.11394C0.639969 6.70794 1.77697 8.03194 3.26797 8.33694C3.00097 8.40994 2.70997 8.44494 2.40797 8.44494C2.19797 8.44494 1.98597 8.43294 1.78697 8.38894C2.21197 9.68794 3.41797 10.6429 4.85197 10.6739C3.73597 11.5469 2.31897 12.0729 0.78497 12.0729C0.51597 12.0729 0.257969 12.0609 -3.05176e-05 12.0279C1.45297 12.9649 3.17497 13.4999 5.03197 13.4999C11.068 13.4999 14.368 8.49994 14.368 4.16594C14.368 4.02094 14.363 3.88094 14.356 3.74194C15.007 3.27994 15.554 2.70294 16 2.03894Z" fill="#F4F4FD"/>
</svg>
